<?xml version="1.0" standalone="no"?>
<!DOCTYPE svg PUBLIC "-//W3C//DTD SVG 20010904//EN"
 "http://www.w3.org/TR/2001/REC-SVG-20010904/DTD/svg10.dtd">
<svg version="1.0" xmlns="http://www.w3.org/2000/svg"
 width="351.000000pt" height="351.000000pt" viewBox="0 0 351.000000 351.000000"
 preserveAspectRatio="xMidYMid meet">
<metadata>
Created by potrace 1.14, written by Peter Selinger 2001-2017
</metadata>
<g transform="translate(0.000000,351.000000) scale(0.100000,-0.100000)"
fill="#000000" stroke="none">
<path d="M1495 3215 c-44 -7 -98 -15 -120 -19 -177 -28 -407 -133 -595 -270
-105 -77 -259 -238 -336 -351 -54 -79 -154 -261 -154 -280 0 -4 -6 -21 -14
-38 -71 -163 -100 -324 -100 -557 0 -137 10 -264 21 -284 3 -4 8 -25 10 -45
16 -121 124 -370 228 -526 84 -126 281 -322 410 -408 140 -92 350 -187 471
-212 185 -38 237 -44 393 -43 91 1 181 4 200 9 20 4 50 10 66 12 91 14 249 64
351 111 379 175 681 507 809 891 34 100 36 113 23 121 -14 9 -22 -7 -53 -101
-64 -196 -193 -407 -341 -557 -139 -141 -274 -237 -457 -323 -100 -48 -127
-54 -127 -30 0 8 -1 17 -2 20 -2 3 42 25 97 50 55 25 127 62 160 82 91 55 216
153 210 163 -3 5 -34 -13 -68 -41 -87 -71 -203 -141 -314 -189 -77 -34 -97
-40 -104 -29 -16 26 -9 35 49 58 156 63 403 225 386 252 -3 5 -17 -3 -32 -17
-80 -75 -339 -223 -399 -227 -18 -2 -28 5 -34 21 -8 21 -5 25 34 40 135 52
395 217 374 238 -3 4 -26 -9 -49 -28 -64 -51 -125 -91 -203 -131 -75 -39 -166
-79 -170 -75 -1 2 -5 13 -9 25 -6 19 4 26 99 72 219 104 392 258 523 466 44
71 104 204 97 215 -11 17 -25 11 -35 -16 -23 -60 -84 -172 -131 -238 -114
-165 -268 -296 -450 -386 -46 -23 -91 -46 -100 -50 -9 -5 -20 -6 -23 -3 -16
17 -1 33 52 54 111 45 307 167 292 183 -3 3 -35 -16 -70 -41 -70 -49 -254
-143 -282 -143 -10 0 -19 11 -23 31 -4 17 -5 31 -3 32 1 1 47 24 102 50 97 47
213 124 202 134 -3 3 -36 -15 -73 -40 -38 -25 -107 -64 -153 -87 l-85 -41 -12
28 c-11 28 -11 28 65 64 81 38 186 101 197 120 15 23 -3 17 -51 -18 -27 -19
-89 -55 -139 -79 -89 -43 -90 -43 -97 -21 -11 39 -9 45 21 52 33 7 172 84 197
109 30 31 8 26 -45 -10 -69 -47 -177 -97 -191 -89 -25 15 -4 36 73 75 89 44
135 75 126 85 -4 3 -27 -8 -52 -25 -57 -38 -155 -82 -168 -75 -21 13 -6 34 38
55 78 37 154 89 219 152 81 78 121 135 106 150 -7 7 -13 10 -15 7 -106 -139
-172 -198 -293 -260 -56 -29 -79 -37 -85 -28 -5 9 18 25 72 52 43 22 79 44 79
49 0 11 5 13 -82 -31 -37 -18 -71 -30 -77 -26 -24 14 -8 31 54 59 36 16 65 33
65 37 0 13 -5 12 -71 -21 -33 -17 -64 -28 -69 -25 -22 14 -7 36 43 61 28 15
47 29 40 31 -6 2 -30 -5 -53 -17 -22 -11 -45 -18 -50 -15 -20 13 -9 36 25 52
19 9 35 20 35 25 0 11 -7 10 -41 -7 -16 -9 -34 -13 -39 -10 -18 11 -10 35 15
45 14 5 25 14 25 20 0 13 -6 13 -32 -1 -29 -15 -51 7 -25 25 9 7 17 15 17 17
0 9 -64 1 -67 -8 -2 -5 21 -81 51 -168 30 -88 53 -162 50 -166 -2 -4 -25 -10
-51 -14 -27 -5 -55 -10 -63 -12 -36 -8 -192 -4 -246 7 -184 36 -348 140 -460
292 -35 48 -44 55 -54 43 -26 -32 132 -200 259 -275 63 -38 171 -81 239 -96
87 -19 269 -11 380 18 10 2 33 -54 78 -182 35 -102 64 -188 64 -192 0 -10 -58
-25 -165 -44 -94 -17 -265 -21 -350 -10 -405 56 -753 311 -925 679 -30 63 -45
85 -55 81 -19 -8 -20 -4 20 -92 86 -185 221 -350 390 -477 113 -84 306 -172
452 -205 83 -19 101 -21 243 -25 135 -4 216 5 345 39 32 8 60 14 61 13 2 -4
84 -246 84 -251 0 -5 -140 -42 -190 -51 -169 -29 -418 -26 -559 6 -25 6 -55
12 -66 15 -60 12 -193 62 -290 109 -472 229 -784 682 -833 1206 -11 122 -4
301 14 375 l7 27 20 -39 c11 -21 56 -102 100 -179 44 -77 115 -201 157 -275
l77 -135 154 0 154 0 0 340 0 340 -110 0 -110 0 2 -30 c6 -78 9 -385 4 -385
-8 0 -109 178 -154 270 -20 41 -47 93 -59 115 l-23 40 -90 0 c-50 0 -95 1
-101 3 -22 6 52 222 119 352 111 211 302 424 502 560 95 64 211 121 332 163
94 33 114 39 196 53 17 3 46 9 62 13 92 23 377 18 500 -9 22 -5 56 -12 75 -15
19 -3 82 -22 139 -41 543 -185 945 -692 996 -1258 11 -118 14 -135 25 -156 6
-11 13 -20 17 -20 6 0 -2 176 -12 242 -43 302 -191 606 -402 829 -225 236
-500 388 -817 451 -127 25 -377 32 -491 13z"/>
<path d="M1500 2909 c-138 -20 -323 -83 -426 -145 -137 -82 -222 -159 -360
-329 -49 -59 -146 -224 -165 -280 -7 -22 -17 -45 -21 -51 -4 -6 -2 -16 4 -22
15 -15 28 -15 28 0 0 24 111 234 152 289 214 283 415 420 713 485 572 126
1141 -174 1360 -716 23 -57 34 -74 47 -72 16 3 15 10 -8 70 -105 280 -342 535
-616 665 -78 37 -218 84 -277 93 -20 3 -54 9 -75 14 -49 11 -281 10 -356 -1z"/>
<path d="M1709 2703 c-1 -15 -2 -49 -2 -75 0 -27 -4 -48 -9 -48 -4 0 -8 6 -8
14 0 17 -30 30 -31 13 -1 -7 -1 -15 0 -19 0 -5 -17 -8 -39 -8 -36 0 -40 -2
-40 -25 0 -14 -6 -26 -12 -26 -7 -1 -42 -2 -78 -4 -36 -1 -68 -3 -72 -4 -11
-2 -28 -64 -24 -86 2 -11 9 -40 16 -65 7 -25 12 -46 11 -48 -1 -1 6 -16 14
-32 9 -17 13 -30 11 -30 -3 0 3 -20 14 -45 l19 -45 -22 -1 c-12 -1 -39 -1 -59
-1 -44 0 -45 -6 -15 -68 l22 -45 317 0 c175 0 318 1 318 1 0 1 11 27 25 58
l25 56 -55 -3 c-30 -1 -55 2 -55 6 0 5 16 61 36 125 60 192 48 234 -63 231
-61 -2 -77 2 -79 22 -1 5 -2 14 -3 19 0 6 -19 10 -41 10 -29 0 -40 4 -40 15 0
8 -9 15 -20 15 -11 0 -20 -7 -20 -15 0 -8 -3 -15 -7 -15 -5 0 -8 32 -8 72 0
48 -4 73 -12 75 -8 3 -14 -6 -14 -24z m-9 -168 c-7 -13 -83 -11 -87 2 -3 8 13
11 44 10 27 -1 46 -6 43 -12z m137 0 c2 -6 -18 -10 -47 -10 -32 0 -50 4 -50
12 0 14 92 13 97 -2z m-149 -44 c18 -1 23 -6 20 -23 -3 -21 -7 -22 -131 -23
-71 0 -134 3 -139 6 -19 12 0 37 29 41 24 2 132 2 221 -1z m324 -6 c4 -5 8
-17 8 -25 0 -13 -22 -15 -138 -15 l-137 0 -3 25 -3 25 133 0 c81 1 136 -3 140
-10z m-467 -145 c14 -41 25 -78 25 -81 0 -3 -19 -6 -42 -5 l-43 2 -26 76 c-15
43 -25 79 -23 81 2 1 21 3 44 2 l40 0 25 -75z m325 72 c0 -8 -40 -143 -45
-151 -7 -12 -85 -12 -86 0 0 5 -1 34 -1 64 0 100 -6 92 67 91 36 0 65 -2 65
-4z m135 -21 c-21 -88 -38 -131 -51 -132 -8 -1 -25 -1 -39 -1 -56 0 -54 -3
-32 75 12 39 25 75 29 78 4 3 29 5 54 5 44 0 45 -1 39 -25z m-295 -59 l0 -78
-51 0 c-56 1 -60 4 -78 71 -6 22 -13 50 -16 63 -6 21 -4 22 69 22 l76 0 0 -78z
m316 -205 c3 -2 2 -12 -2 -21 -5 -14 -37 -16 -305 -16 -164 0 -299 2 -299 4 0
2 -3 11 -6 20 -5 13 7 16 78 18 112 4 529 0 534 -5z"/>
<path d="M1310 2353 c-128 -75 -305 -283 -241 -283 5 0 24 24 43 53 50 74 132
152 211 199 37 22 67 47 67 54 0 20 -9 18 -80 -23z"/>
<path d="M2073 2373 c-4 -9 -1 -19 5 -21 7 -2 39 -22 72 -43 67 -45 149 -131
192 -201 17 -27 36 -48 44 -48 21 0 18 11 -26 78 -51 79 -140 167 -219 215
-54 33 -62 35 -68 20z"/>
<path d="M943 1690 l2 -345 108 0 c65 0 107 4 108 10 1 5 0 26 -1 45 l-1 36
68 -1 68 0 1 -35 c1 -19 2 -40 3 -45 1 -8 173 -13 201 -6 3 0 4 50 4 110 l-2
110 -86 163 c-47 90 -103 195 -124 233 l-38 70 -156 0 -157 0 2 -345z m273
-42 c33 -57 60 -105 61 -108 2 -3 -26 -5 -62 -6 l-65 -1 0 109 c0 59 2 108 4
108 2 0 30 -46 62 -102z"/>
<path d="M1348 2032 c-10 -2 -18 -7 -18 -12 0 -23 102 -180 118 -181 9 -1 31
-2 49 -2 24 1 32 -4 35 -21 2 -11 3 -121 2 -243 l-1 -223 86 -1 c47 0 96 -2
109 -3 13 -2 26 2 30 8 4 6 7 116 7 245 l0 235 55 0 55 1 52 85 c28 47 52 90
52 97 1 8 -18 11 -56 9 -32 -1 -64 2 -70 7 -9 6 -13 5 -13 -2 0 -8 -5 -9 -19
-2 -10 6 -20 8 -23 6 -5 -5 -155 -9 -173 -5 -5 1 -14 2 -19 1 -29 -6 -194 -3
-204 3 -7 4 -12 2 -12 -5 0 -7 -4 -8 -12 -2 -7 5 -21 8 -30 5z"/>
<path d="M2163 2029 c-191 -37 -283 -200 -249 -441 14 -99 92 -195 182 -223
55 -17 159 -21 212 -9 100 24 192 125 209 230 l6 34 -95 0 -95 0 -15 -39 c-25
-63 -87 -92 -141 -64 -88 44 -92 284 -6 328 60 32 119 11 145 -51 15 -36 18
-37 114 -36 97 1 92 -2 85 38 -14 90 -77 181 -145 208 -73 29 -144 38 -207 25z"/>
<path d="M2594 2030 l-29 -5 -3 -338 -2 -337 22 -1 c28 0 191 0 199 0 3 1 5
21 4 46 -2 38 1 45 16 46 11 0 49 2 86 2 l67 2 27 -44 c16 -24 30 -48 31 -52
3 -9 236 -14 244 -6 4 4 -104 205 -196 362 -28 50 -81 141 -117 203 -36 63
-71 116 -78 119 -18 6 -235 9 -271 3z m250 -366 c31 -52 56 -99 56 -103 0 -10
-105 -9 -115 0 -8 8 -12 208 -3 203 3 -2 31 -47 62 -100z"/>
<path d="M3344 1335 c-26 -25 -34 -40 -34 -68 0 -38 40 -97 66 -97 8 0 14 -4
14 -9 0 -23 81 8 104 41 31 44 15 124 -29 148 -46 25 -84 20 -121 -15z m114
-6 c43 -26 46 -91 6 -126 -33 -30 -65 -29 -103 3 -42 35 -43 82 -1 117 32 27
61 29 98 6z"/>
<path d="M3369 1288 c-6 -48 1 -78 16 -78 8 0 11 7 8 20 -4 14 0 20 10 20 9 0
19 -9 22 -20 3 -11 13 -20 21 -20 11 0 13 4 5 17 -7 13 -5 23 7 36 24 27 4 51
-45 55 -39 3 -41 2 -44 -30z m71 -4 c0 -10 -7 -14 -22 -12 -32 5 -35 28 -4 28
17 0 26 -5 26 -16z"/>
</g>
</svg>
